<svg version="1.1" xmlns="http://www.w3.org/2000/svg" xmlns:cc="http://creativecommons.org/ns#" xmlns:dc="http://purl.org/dc/elements/1.1/" xmlns:rdf="http://www.w3.org/1999/02/22-rdf-syntax-ns#" viewBox="2.94 2.94 47.03 47.04"> <metadata> <rdf:rdf> <cc:work rdf:about=""> <dc:format>image/svg+xml</dc:format> <dc:type rdf:resource="http://purl.org/dc/dcmitype/StillImage"></dc:type> <dc:title></dc:title> </cc:work> </rdf:rdf> </metadata> <g transform="translate(0 -244.08)"> <path d="m26.442 247.02c-8.6573 6e-3 -16.219 4.6914-20.295 11.663l0.01529 4.9985-2.1956-0.0212c-0.66571 2.18-1.0234 4.4944-1.0223 6.8925 9.03e-4 2.0862 0.27371 4.1086 0.78419 6.0342l2.4413-0.0271-0.00241 5.875c4.0853 6.9596 11.646 11.631 20.297 11.629 8.6267-2e-3 16.168-4.6514 20.258-11.584l0.0241-5.8914 2.4378 0.0117c0.51486-1.9364 0.78949-3.971 0.78948-6.0701-0.0024-2.3789-0.35712-4.6749-1.0146-6.8384l-2.2321 6e-3 -0.0076-5.0996c-4.0946-6.9367-11.644-11.584-20.277-11.578zm-2.1063 3.7892 0.02176 3.0174c0.0046 0.48679 0.77419 1.1012 1.1545 1.0975l1.9281-0.0102c0.47535-6e-3 1.1318-0.69062 1.1369-1.1534l0.01115-2.941c6.0511 0.65887 11.288 4.0319 14.46 8.8759l0.0024 7.9306 2.8034-8e-3 -0.01586 4.9638-2.7864 0.0288 0.0024 8.7448c-3.1704 4.8474-8.4083 8.2249-14.465 8.8847l-0.0024-2.911c-8e-3 -0.47584-0.61471-1.1801-1.1069-1.1857l-1.9888-0.0141c-0.48232 7e-3 -1.1462 0.707-1.1381 1.2586l0.0024 2.8658c-6.0809-0.62364-11.35-3.9855-14.547-8.8312l-0.00125-8.8442-2.74 8e-3 0.00587-4.9256 2.7117-7e-3 -0.013514-7.9588c3.1891-4.8693 8.466-8.2543 14.564-8.8859zm11.881 16.421c-1.7212 3e-3 -3.1137 1.4004-3.1115 3.1203 0.0024 1.7199 1.3991 3.112 3.1203 3.1109 1.7212-1e-3 3.1162-1.3958 3.1162-3.1203-5e-3 -1.7244-1.4038-3.1143-3.125-3.1109zm-20.285 5e-3c-1.7212 3e-3 -3.114 1.4004-3.1115 3.1203 0.0024 1.7199 1.3996 3.112 3.1209 3.1109 1.7212-1e-3 3.1156-1.3958 3.1156-3.1203-5e-3 -1.7244-1.4038-3.1143-3.125-3.1109z"></path> </g> </svg>