<svg version="1.1" xmlns="http://www.w3.org/2000/svg" xmlns:cc="http://creativecommons.org/ns#" xmlns:dc="http://purl.org/dc/elements/1.1/" xmlns:rdf="http://www.w3.org/1999/02/22-rdf-syntax-ns#" viewBox="14.75 8.54 30.49 42.92"> <metadata> <rdf:rdf> <cc:work rdf:about=""> <dc:format>image/svg+xml</dc:format> <dc:type rdf:resource="http://purl.org/dc/dcmitype/StillImage"></dc:type> <dc:title></dc:title> <cc:license rdf:resource="http://creativecommons.org/licenses/by/4.0/"></cc:license> <dc:creator> <cc:agent> <dc:title>Yves Pratter</dc:title> </cc:agent> </dc:creator> </cc:work> <cc:license rdf:about="http://creativecommons.org/licenses/by/4.0/"> <cc:permits rdf:resource="http://creativecommons.org/ns#Reproduction"></cc:permits> <cc:permits rdf:resource="http://creativecommons.org/ns#Distribution"></cc:permits> <cc:requires rdf:resource="http://creativecommons.org/ns#Notice"></cc:requires> <cc:requires rdf:resource="http://creativecommons.org/ns#Attribution"></cc:requires> <cc:permits rdf:resource="http://creativecommons.org/ns#DerivativeWorks"></cc:permits> </cc:license> </rdf:rdf> </metadata> <g transform="matrix(.75445 0 0 .75445 48.746 14.016)" stroke="#000" stroke-linecap="round" stroke-linejoin="round"> <path d="m-5.9654 29.424c0 10.428-8.4538 18.882-18.882 18.882s-18.882-8.4538-18.882-18.882v-16.475c0-10.428 8.4538-18.882 18.882-18.882s18.882 8.4538 18.882 18.882z" fill="none" stroke-width="2"></path> <path d="m-33.823 29.5a1.5242 1.5242 0 0 1-1.5242 1.5242 1.5242 1.5242 0 0 1-1.5242-1.5242 1.5242 1.5242 0 0 1 1.5242-1.5242 1.5242 1.5242 0 0 1 1.5242 1.5242z" stroke-width="1.9348"></path> <path d="m-12.577 29.5a1.5242 1.5242 0 0 1-1.5242 1.5242 1.5242 1.5242 0 0 1-1.5242-1.5242 1.5242 1.5242 0 0 1 1.5242-1.5242 1.5242 1.5242 0 0 1 1.5242 1.5242z" stroke-width="1.9348"></path> <path d="m-23.2 40.203a1.5242 1.5242 0 0 1-1.5242 1.5242 1.5242 1.5242 0 0 1-1.5242-1.5242 1.5242 1.5242 0 0 1 1.5242-1.5242 1.5242 1.5242 0 0 1 1.5242 1.5242z" stroke-width="1.9348"></path> <path d="m-33.823 15.932a1.5242 1.5242 0 0 1-1.5242 1.5242 1.5242 1.5242 0 0 1-1.5242-1.5242 1.5242 1.5242 0 0 1 1.5242-1.5242 1.5242 1.5242 0 0 1 1.5242 1.5242z" stroke-width="1.9348"></path> <path d="m-12.577 15.932a1.5242 1.5242 0 0 1-1.5242 1.5242 1.5242 1.5242 0 0 1-1.5242-1.5242 1.5242 1.5242 0 0 1 1.5242-1.5242 1.5242 1.5242 0 0 1 1.5242 1.5242z" stroke-width="1.9348"></path> <path d="m-34.3 5.7458a1.0473 1.0473 0 0 1-1.0473 1.0473 1.0473 1.0473 0 0 1-1.0473-1.0473 1.0473 1.0473 0 0 1 1.0473-1.0473 1.0473 1.0473 0 0 1 1.0473 1.0473z" stroke-width="1.3294"></path> <path d="m-13.054 5.7458a1.0473 1.0473 0 0 1-1.0473 1.0473 1.0473 1.0473 0 0 1-1.0473-1.0473 1.0473 1.0473 0 0 1 1.0473-1.0473 1.0473 1.0473 0 0 1 1.0473 1.0473z" stroke-width="1.3294"></path> </g> </svg>