<svg version="1.1" xmlns="http://www.w3.org/2000/svg" xmlns:cc="http://creativecommons.org/ns#" xmlns:dc="http://purl.org/dc/elements/1.1/" xmlns:rdf="http://www.w3.org/1999/02/22-rdf-syntax-ns#" viewBox="58.48 190.49 625.15 625.75"> <metadata> <rdf:rdf> <cc:work rdf:about=""> <dc:format>image/svg+xml</dc:format> <dc:type rdf:resource="http://purl.org/dc/dcmitype/StillImage"></dc:type> <dc:title></dc:title> </cc:work> </rdf:rdf> </metadata> <g stroke="#000"> <ellipse cx="512.14" cy="506.65" rx="69.105" ry="72.676" fill="none" stroke-width="65"></ellipse> <ellipse cx="233.57" cy="506.65" rx="69.105" ry="72.676" fill="none" stroke-width="65"></ellipse> <circle cx="371.43" cy="330.93" r="70" fill="none" stroke="#000" stroke-width="10"></circle> <ellipse cx="319.86" cy="330.93" rx="16.378" ry="17.092" fill="none" stroke-width="7.3095"></ellipse> <ellipse cx="421.57" cy="330.93" rx="16.378" ry="17.092" fill="none" stroke-width="7.3095"></ellipse> <ellipse cx="372.14" cy="380.36" rx="16.378" ry="17.092" fill="none" stroke-width="7.3095"></ellipse> <g transform="translate(0,4)"> <ellipse cx="372.14" cy="276.65" rx="16.378" ry="17.092" fill="none" stroke="#000" stroke-width="7.3095"></ellipse> </g> <g transform="translate(2.9325e-8 350)"> <circle cx="371.43" cy="330.93" r="70" fill="none" stroke="#000" stroke-width="10"></circle> </g> <ellipse cx="319.86" cy="680.93" rx="16.378" ry="17.092" fill="none" stroke-width="7.3095"></ellipse> <ellipse cx="421.57" cy="680.93" rx="16.378" ry="17.092" fill="none" stroke-width="7.3095"></ellipse> <ellipse cx="372.14" cy="730.36" rx="16.378" ry="17.092" fill="none" stroke-width="7.3095"></ellipse> <g transform="translate(2.9325e-8 354)"> <ellipse cx="372.14" cy="276.65" rx="16.378" ry="17.092" fill="none" stroke="#000" stroke-width="7.3095"></ellipse> </g> <path d="m198.57 253.79s52.586-29.396 81.071-38.571c27.983-9.0133 57.389-15.38 86.786-15.714 33.623-0.38182 67.557 5.6582 99.643 15.714 28.147 8.8216 79.643 38.571 79.643 38.571l38.571-8.5714 54.286 54.286-11.429 40s31.192 55.835 39.286 86.429c7.399 27.966 9.0361 57.524 7.8571 86.429-1.3592 33.323-6.0065 67.135-17.143 98.571-9.4674 26.725-24.364 51.644-41.429 74.286-16.821 22.319-37.202 42.118-59.143 59.429-18.222 14.376-38.257 26.775-59.429 36.286-21.573 9.6912-44.671 16.054-67.857 20.714-18.159 3.6499-36.765 5.4022-55.286 5.5714-18.275 0.16693-36.658-1.2504-54.643-4.5-18.528-3.3478-36.851-8.4252-54.357-15.357-19.703-7.8021-38.756-17.591-56.429-29.286-23.694-15.679-46.582-33.28-65.714-54.286-19.388-21.287-36.318-45.373-48.571-71.429-11.288-24.002-17.825-50.258-22.143-76.429-4.3064-26.103-5.9289-52.936-3.5714-79.286 2.3934-26.752 9.2909-53.116 17.857-78.571 7.1709-21.309 27.857-61.429 27.857-61.429l-9.4286-41.714 49.429-49.714z" fill="none" stroke-width="18"></path> </g> </svg>