<?xml version="1.0" encoding="UTF-8"?>
<svg width="210mm" height="297mm" version="1.1" viewBox="0 0 744.09 1052.4" xmlns="http://www.w3.org/2000/svg" xmlns:cc="http://creativecommons.org/ns#" xmlns:dc="http://purl.org/dc/elements/1.1/" xmlns:rdf="http://www.w3.org/1999/02/22-rdf-syntax-ns#">
<metadata>
<rdf:RDF>
<cc:Work rdf:about="">
<dc:format>image/svg+xml</dc:format>
<dc:type rdf:resource="http://purl.org/dc/dcmitype/StillImage"/>
<dc:title/>
</cc:Work>
</rdf:RDF>
</metadata>
<g fill="none" stroke="#000">
<ellipse cx="422.49" cy="566.03" rx="33.477" ry="32.689" stroke-width="23"/>
<ellipse cx="315.29" cy="566.03" rx="33.477" ry="32.689" stroke-width="23"/>
<ellipse cx="264.85" cy="477.74" rx="33.477" ry="32.689" stroke-width="23"/>
<ellipse cx="368.89" cy="477.74" rx="33.477" ry="32.689" stroke-width="23"/>
<ellipse cx="471.36" cy="477.74" rx="33.477" ry="32.689" stroke-width="23"/>
<ellipse cx="421.71" cy="406.02" rx="24.44" ry="25.228" stroke-width="23"/>
<ellipse cx="319.24" cy="406.02" rx="24.44" ry="25.228" stroke-width="23"/>
<path d="m263.27 331.92h214.4s22.481 15.202 31.953 25.647c9.4713 10.445 18.493 24.489 24.8 35.835s11.416 21.509 15.765 34.683 8.335 26.9 9.4588 44.141-0.50993 40.831-4.7294 58.329c-4.2195 17.498-12.057 33.422-18.918 45.718-6.8602 12.296-11.885 18.526-20.494 28.376s-19.922 20.959-31.529 29.953c-11.608 8.9937-23.823 17.225-37.835 23.647s-45.718 14.188-45.718 14.188-42.931 5.7582-77.247-6.3059c-13.64-4.7952-22.578-6.4299-37.835-14.188-19.113-9.719-37.522-22.04-52.024-37.835-19.931-21.708-35.904-47.883-45.718-75.671-7.7712-22.004-10.316-46.045-9.4588-69.365 0.65128-17.715 4.7946-35.431 11.035-52.024 5.3007-14.093 14.295-27.649 22.071-39.412 7.6061-11.507 20.999-24.122 29.953-31.529s22.071-14.188 22.071-14.188z" stroke-linejoin="round" stroke-width="40"/>
</g>
</svg>
