<?xml version="1.0" encoding="UTF-8"?>
<svg width="210mm" height="297mm" version="1.1" viewBox="0 0 744.09 1052.4" xmlns="http://www.w3.org/2000/svg" xmlns:cc="http://creativecommons.org/ns#" xmlns:dc="http://purl.org/dc/elements/1.1/" xmlns:rdf="http://www.w3.org/1999/02/22-rdf-syntax-ns#">
<metadata>
<rdf:RDF>
<cc:Work rdf:about="">
<dc:format>image/svg+xml</dc:format>
<dc:type rdf:resource="http://purl.org/dc/dcmitype/StillImage"/>
</cc:Work>
</rdf:RDF>
</metadata>
<g stroke="#000">
<ellipse cx="367.86" cy="495.93" rx="160.95" ry="162.38" fill-rule="evenodd" stroke-width="9.5693"/>
<ellipse cx="295" cy="428.79" rx="61.111" ry="59.683" fill="#fff" fill-rule="evenodd" stroke-width="9.9452"/>
<ellipse cx="443.57" cy="430.22" rx="61.111" ry="59.683" fill="#fff" fill-rule="evenodd" stroke-width="9.9452"/>
<ellipse cx="367.86" cy="597.36" rx="61.111" ry="59.683" fill="#fff" fill-rule="evenodd" stroke-width="9.9452"/>
<ellipse cx="265.17" cy="548.79" rx="44.073" ry="43.907" fill="#fff" fill-rule="evenodd" stroke-width="9.8737"/>
<ellipse cx="470.14" cy="548.22" rx="45.2" ry="45.2" fill="#fff" fill-rule="evenodd" stroke-width="10.145"/>
<ellipse cx="295.47" cy="427.82" rx="17.293" ry="16.875" fill-rule="evenodd"/>
<ellipse cx="442.95" cy="428.33" rx="17.293" ry="16.875" fill-rule="evenodd"/>
<ellipse cx="368.2" cy="596.02" rx="17.293" ry="16.875" fill-rule="evenodd"/>
<ellipse cx="265.42" cy="550.32" rx="10.354" ry="10.607" fill-rule="evenodd" stroke-width="1px"/>
<ellipse cx="470.5" cy="548.32" rx="10.354" ry="10.607" fill-rule="evenodd" stroke-width="1px"/>
<path d="m314.16 710.43s-8.2973-2.7314-12.374-4.2931c-39.464-15.117-77.729-39.075-103.29-72.478-30.356-39.674-52.53-90.984-51.013-140.92 1.6877-55.551 26.773-113.83 66.165-153.04 39.83-39.641 98.866-66.732 155.06-66.165 58.17 0.5874 118.77 29.794 159.1 71.721 37.017 38.486 58.803 95.11 60.104 148.49 1.195 49.024-18.58 100.03-48.487 138.9-27.026 35.119-69.146 60.366-110.11 74.499-2.5427 0.8773-7.5761 2.7779-7.5761 2.7779l-0.50508 22.223c-0.16266 7.1569-6.9876 15.918-14.142 16.162-39.795 1.3588-40.272 0.57428-74.751 1.0102-7.6333 0.0965-17.492-10.551-17.678-18.183z" fill="none" stroke-width="10"/>
<path d="m315.71 217.36 100-0.71428" fill="none" stroke-width="10"/>
<path d="m315.71 260.93-0.71429-59.286s-6.4622 0.074-9.2857 1.4286c-3.4946 1.6764-7.4542 4.1458-8.5714 7.8571-6.4364 21.381-13.571 57.857-13.571 57.857" fill-rule="evenodd" stroke-width="10"/>
<path d="m415.81 261.65 0.71429-59.286s6.4622 0.074 9.2857 1.4286c3.4946 1.6764 7.4542 4.1458 8.5714 7.8571 6.4364 21.381 13.571 57.857 13.571 57.857" fill-rule="evenodd" stroke-width="10"/>
<path d="m303.19 719.34s-14.026-5.3881-18.092-7.5377c-39.569-20.921-71.23-37.801-94.708-69.021-31.535-41.935-55.359-95.521-53.76-147.94 1.7786-58.321 28.215-119.51 69.728-160.67 41.975-41.618 104.19-70.06 163.41-69.464 61.302 0.61669 125.17 31.28 167.67 75.297 39.01 40.405 61.97 99.852 63.341 155.9 1.2593 51.469-17.225 103.56-51.098 145.82-25.393 31.679-57.717 50.244-98.864 71.143-2.5263 1.2831-17.076 5.9469-17.076 5.9469l-0.53228 23.332c-0.17142 7.5138 2.7376 23.783-4.8022 24.039-41.938 1.4266-67.694 0.60292-104.03 1.0605-8.0444 0.10131-19.338 1.0413-19.64-6.9676z" fill="none" stroke-width="35"/>
<ellipse cx="282.34" cy="866.49" rx="52.642" ry="54.157" fill="none" stroke-width="20"/>
<ellipse cx="455.07" cy="864.47" rx="52.642" ry="54.157" fill="none" stroke-width="20"/>
<rect x="175.29" y="772.59" width="386.94" height="192.47" ry="95.433" fill="none" opacity=".99" stroke-linecap="round" stroke-width="25"/>
</g>
</svg>
