<svg xmlns="http://www.w3.org/2000/svg" width="18px" height="32px" fill="none" viewBox="7.61 3.89 8.79 16.22">
<path d="m11.5 13.8h-1.3701c-1.4085 0-2.1127 0-2.4076-0.4615-0.29493-0.4616 9.3e-4 -1.1006 0.59265-2.3788l2.7314-5.8996c0.3742-0.80824 0.5612-1.2124 0.7575-1.1692 0.1962 0.04322 0.1962 0.48855 0.1962 1.3792v4.4299c0 0.2357 0 0.3536 0.0732 0.4268s0.1911 0.0732 0.4268 0.0732h1.3701c1.4085 0 2.1127 0 2.4076 0.4615 0.2949 0.4616-9e-4 1.1006-0.5926 2.3787l-2.7314 5.8997c-0.3742 0.8083-0.5612 1.2124-0.7575 1.1692-0.1962-0.0432-0.1962-0.4886-0.1962-1.3792v-4.4299c0-0.2357 0-0.3536-0.0732-0.4268s-0.1911-0.0732-0.4268-0.0732z" fill="#222" data-darkreader-inline-fill="" style="--darkreader-inline-fill: var(--darkreader-background-222222, #1a1c1d);"/>
</svg>